<?xml version="1.0" encoding="UTF-8"?><svg id="Layer_2" xmlns="http://www.w3.org/2000/svg" viewBox="0 0 223.65 42.51"><defs><style>.cls-1{fill:#231f20;stroke-width:0px;}</style></defs><g id="Graphics"><path class="cls-1" d="m0,1.33h26.37v8.63H9.76v7.17h15.34v8.5h-15.34v7.17h17.34v8.37H0V1.33Zm7.31,33.34V8.1L2.46,3.19v36.13l4.85-4.65Z"/><path class="cls-1" d="m41.12,29.49c0,2.32,1.86,4.18,4.12,4.18,2.46,0,3.99-1.39,3.99-3.45,0-2.99-3.92-3.85-7.17-4.98-6.71-2.39-10.43-5.51-10.43-12.35S37.66,0,45.17,0c8.83,0,13.02,5.65,13.55,13.02h-9.17c0-2.26-1.39-4.12-4.12-4.12-2.13,0-4.18,1.26-4.18,3.85,0,2.99,3.65,3.52,7.04,4.52,7.11,2.13,10.43,6.11,10.43,12.35,0,7.04-5.98,12.89-13.48,12.89-8.7,0-13.62-5.85-13.62-13.02h9.5Zm4.12,11.16v-5.11c-3.39-.07-5.51-1.99-6.11-4.18h-5.18c.13,4.98,4.98,9.3,11.29,9.3Zm11.09-29.49c-.4-3.92-3.32-9.3-11.09-9.3v5.18c4.12,0,5.51,2.46,6.11,4.12h4.98Z"/><path class="cls-1" d="m65.3,1.33h16.67c8.17,0,12.95,6.04,12.95,12.75,0,7.44-5.58,12.75-12.95,12.75h-6.97v14.35h-9.7V1.33Zm7.24,37.99V3.19h-4.78v36.13h4.78Zm8.5-20.86c2.52,0,3.92-2.32,3.92-4.65,0-2.19-1.33-4.18-3.92-4.18h-6.04v8.83h6.04Z"/><path class="cls-1" d="m98.97,17.6h17.93v7.57h-17.93v-7.57Z"/><path class="cls-1" d="m122.22,29.56c0-3.45,1.53-6.64,3.99-8.97-2.06-2.26-3.25-5.11-3.25-8.44,0-6.58,5.71-12.16,12.82-12.16s12.75,5.58,12.75,12.42c0,3.06-1.39,6.04-3.32,8.17,2.59,2.32,4.05,5.58,4.05,9.23,0,6.97-6.04,12.69-13.48,12.69s-13.55-5.71-13.55-12.69v-.27Zm10.23-12.35c-1.66-1.06-2.79-2.92-2.79-4.92,0-3.12,2.66-5.65,5.98-5.85V1.79c-5.91.13-10.63,4.85-10.63,10.49,0,2.72,1.06,5.25,2.86,7.04,1.33-1,2.86-1.66,4.58-2.13Zm7.31-4.92c0-2.13-1.93-3.85-3.99-3.85-2.26,0-4.05,1.73-4.05,3.85s1.79,3.92,4.05,3.92c2.06,0,3.99-1.79,3.99-3.92Zm-3.85,21.39c2.06,0,3.99-1.79,3.99-3.92s-1.93-3.85-3.99-3.85c-2.19,0-4.05,1.73-4.05,3.85s1.86,3.92,4.05,3.92Zm11.23-3.92c0-3.12-1.33-5.91-3.52-7.84-1.53.86-3.25,1.59-5.25,2.19,2.19,1,3.79,3.12,3.79,5.65,0,3.32-2.72,5.91-6.24,6.11v4.78c6.18-.2,11.23-5.05,11.23-10.89Z"/><path class="cls-1" d="m155.17,17.2c0-9.57,7.51-17.2,17.6-17.2s17.87,7.64,17.87,17.2v8.24c0,9.5-7.64,17.07-17.87,17.07s-17.6-7.57-17.6-17.07v-8.24Zm17.6,23.05c8.63,0,15.08-6.44,15.14-14.61h-4.32c-.2,5.65-4.65,9.9-10.83,9.9s-10.5-4.25-10.69-9.9h-4.38c.07,8.17,6.51,14.61,15.08,14.61Zm0-6.84c4.92,0,8.17-3.52,8.17-8.17v-7.84c0-4.65-3.25-8.3-8.17-8.3s-8.04,3.65-8.04,8.3v7.84c0,4.65,3.25,8.17,8.04,8.17Z"/><path class="cls-1" d="m196.62,29.56c0-3.45,1.53-6.64,3.99-8.97-2.06-2.26-3.25-5.11-3.25-8.44,0-6.58,5.71-12.16,12.82-12.16s12.75,5.58,12.75,12.42c0,3.06-1.39,6.04-3.32,8.17,2.59,2.32,4.05,5.58,4.05,9.23,0,6.97-6.04,12.69-13.48,12.69s-13.55-5.71-13.55-12.69v-.27Zm10.23-12.35c-1.66-1.06-2.79-2.92-2.79-4.92,0-3.12,2.66-5.65,5.98-5.85V1.79c-5.91.13-10.63,4.85-10.63,10.49,0,2.72,1.06,5.25,2.86,7.04,1.33-1,2.86-1.66,4.58-2.13Zm7.31-4.92c0-2.13-1.93-3.85-3.99-3.85-2.26,0-4.05,1.73-4.05,3.85s1.79,3.92,4.05,3.92c2.06,0,3.99-1.79,3.99-3.92Zm-3.85,21.39c2.06,0,3.99-1.79,3.99-3.92s-1.93-3.85-3.99-3.85c-2.19,0-4.05,1.73-4.05,3.85s1.86,3.92,4.05,3.92Zm11.23-3.92c0-3.12-1.33-5.91-3.52-7.84-1.53.86-3.25,1.59-5.25,2.19,2.19,1,3.79,3.12,3.79,5.65,0,3.32-2.72,5.91-6.24,6.11v4.78c6.18-.2,11.23-5.05,11.23-10.89Z"/></g></svg>